<?xml version="1.0" encoding="UTF-8" standalone="no"?>
<svg
   xmlns:dc="http://purl.org/dc/elements/1.1/"
   xmlns:cc="http://creativecommons.org/ns#"
   xmlns:rdf="http://www.w3.org/1999/02/22-rdf-syntax-ns#"
   xmlns:svg="http://www.w3.org/2000/svg"
   xmlns="http://www.w3.org/2000/svg"
   xmlns:sodipodi="http://sodipodi.sourceforge.net/DTD/sodipodi-0.dtd"
   xmlns:inkscape="http://www.inkscape.org/namespaces/inkscape"
   inkscape:version="1.0beta2 (2b71d25, 2019-12-03)"
   sodipodi:docname="edit.svg"
   id="svg837"
   height="48"
   width="48"
   xml:space="preserve"
   viewBox="0 0 48 48"
   y="0px"
   x="0px"
   version="1.1"><metadata
     id="metadata843"><rdf:RDF><cc:Work
         rdf:about=""><dc:format>image/svg+xml</dc:format><dc:type
           rdf:resource="http://purl.org/dc/dcmitype/StillImage" /><dc:title></dc:title></cc:Work></rdf:RDF></metadata><defs
     id="defs841" /><sodipodi:namedview
     inkscape:current-layer="svg837"
     inkscape:window-maximized="0"
     inkscape:window-y="60"
     inkscape:window-x="189"
     inkscape:cy="24"
     inkscape:cx="24"
     inkscape:zoom="14"
     showgrid="false"
     id="namedview839"
     inkscape:window-height="480"
     inkscape:window-width="776"
     inkscape:pageshadow="2"
     inkscape:pageopacity="0"
     guidetolerance="10"
     gridtolerance="10"
     objecttolerance="10"
     borderopacity="1"
     inkscape:document-rotation="0"
     bordercolor="#666666"
     pagecolor="#ffffff" /><g
     id="g835"
     fill="#444444"
     class="nc-icon-wrapper"><path
       id="path833"
       d="M43.7,8.6l-4.3-4.3c-0.9-0.9-2.2-1.5-3.5-1.5c-1.3,0-2.6,0.5-3.5,1.5L5.1,31.5C5,31.6,5,31.7,4.9,31.8 c0,0,0,0.1,0,0.1c0,0,0,0.1,0,0.1l-2,12c-0.1,0.3,0.1,0.6,0.3,0.9c0.2,0.2,0.4,0.3,0.7,0.3c0.1,0,0.1,0,0.2,0l12-2c0,0,0.1,0,0.1,0 c0,0,0.1,0,0.1,0c0.1,0,0.2-0.1,0.3-0.2l27.2-27.2C45.7,13.8,45.7,10.6,43.7,8.6z M9.3,42.2l-3.6-3.6l0.7-4.4l7.3,7.3L9.3,42.2z M30.7,18.7L14.4,35c-0.2,0.2-0.5,0.3-0.7,0.3c-0.3,0-0.5-0.1-0.7-0.3c-0.4-0.4-0.4-1,0-1.4l16.3-16.3c0.4-0.4,1-0.4,1.4,0 S31.1,18.3,30.7,18.7z M37.8,18.8l-8.6-8.6l2.6-2.6l8.6,8.6L37.8,18.8z"
       fill="#444444" /></g></svg>
